<?xml version="1.0" standalone="no"?>
<!DOCTYPE svg PUBLIC "-//W3C//DTD SVG 20010904//EN"
 "http://www.w3.org/TR/2001/REC-SVG-20010904/DTD/svg10.dtd">
<svg version="1.0" xmlns="http://www.w3.org/2000/svg"
 width="438.000000pt" height="438.000000pt" viewBox="0 0 438.000000 438.000000"
 preserveAspectRatio="xMidYMid meet">
<metadata>
Created by potrace 1.14, written by Peter Selinger 2001-2017
</metadata>
<g transform="translate(0.000000,438.000000) scale(0.100000,-0.100000)"
fill="#000000" stroke="none">
<path d="M0 2190 l0 -2190 2190 0 2190 0 0 2190 0 2190 -2190 0 -2190 0 0
-2190z m2941 628 c63 -43 118 -165 137 -303 7 -44 15 -102 19 -130 3 -27 5
-61 3 -75 -2 -14 -4 -91 -4 -172 -1 -80 -3 -145 -6 -143 -3 2 -3 -23 0 -55 3
-35 2 -56 -4 -53 -5 4 -6 -6 -2 -23 4 -16 9 -46 11 -67 2 -20 7 -46 10 -57 3
-11 3 -20 -2 -20 -4 0 -9 -41 -10 -91 -2 -85 -34 -250 -52 -274 -5 -5 -11 -26
-15 -46 -15 -82 -132 -324 -171 -351 -5 -4 -7 -8 -3 -8 5 0 -31 -39 -80 -86
-68 -67 -104 -94 -169 -125 -45 -21 -88 -39 -95 -39 -8 0 -41 -10 -73 -22 -88
-31 -288 -32 -398 0 -147 42 -237 97 -366 223 -25 24 -71 86 -104 137 -16 26
-33 49 -38 50 -5 2 -9 9 -9 15 0 7 -19 41 -42 77 -81 126 -135 263 -158 400
-7 41 -16 93 -21 115 -5 27 -4 44 4 54 8 9 8 12 1 8 -8 -4 -11 16 -11 67 -1
41 -5 89 -11 108 -9 28 -23 172 -24 243 -1 11 4 44 10 72 6 29 14 92 17 140
13 205 70 323 180 378 58 29 65 30 190 30 97 0 156 -6 232 -23 185 -40 285
-47 397 -28 55 9 144 29 200 45 129 38 150 41 287 50 124 7 131 6 170 -21z
m297 -661 c2 -9 -8 -31 -22 -49 -13 -18 -28 -46 -32 -63 l-7 -30 28 33 c33 39
44 30 39 -31 -11 -134 -49 -274 -85 -312 -25 -25 -24 -24 10 210 4 33 5 98 1
145 -5 64 -3 92 7 113 13 27 16 28 36 14 12 -8 23 -22 25 -30z m-2079 -122
c13 -42 22 -165 12 -165 -4 0 -14 15 -23 33 -23 49 -67 97 -89 97 -23 0 -24
18 -4 47 12 17 25 22 55 20 35 -1 41 -5 49 -32z m-96 -85 c7 0 24 -10 39 -23
22 -18 35 -48 67 -162 55 -197 57 -207 34 -198 -27 11 -51 41 -83 108 -35 73
-80 226 -79 269 0 17 3 25 6 19 2 -7 10 -13 16 -13z"/>
<path d="M2755 2172 c-27 -10 -89 -41 -137 -69 -48 -28 -114 -60 -146 -72 -61
-23 -91 -53 -73 -75 8 -9 -3 -17 -44 -30 -59 -18 -62 -22 -41 -51 9 -12 30
-20 69 -23 54 -4 55 -5 62 -38 3 -19 9 -34 13 -34 4 0 23 16 42 36 l34 36 18
-24 c64 -86 56 -81 122 -74 115 12 120 14 148 46 15 19 29 50 33 76 7 49 7 49
84 18 37 -15 47 -13 38 9 -17 44 -248 55 -357 17 -137 -47 -149 -50 -143 -34
3 8 9 14 14 14 6 0 19 8 30 19 11 10 37 27 57 37 66 34 112 66 112 80 0 23
105 66 180 72 39 4 71 12 73 17 2 13 -92 65 -118 64 -11 0 -42 -8 -70 -17z
m24 -391 c-15 -5 -22 6 -14 19 6 9 10 9 16 -1 5 -8 4 -15 -2 -18z"/>
<path d="M1625 2121 c-52 -13 -115 -53 -115 -73 0 -4 39 -8 88 -7 121 1 164
-11 242 -71 19 -15 55 -35 80 -45 25 -10 59 -29 77 -42 17 -13 36 -23 42 -23
6 0 11 -5 11 -11 0 -21 125 -5 155 20 l27 20 -23 10 c-13 5 -41 12 -62 16 -33
5 -36 9 -31 29 7 30 -7 40 -96 66 -41 12 -104 35 -140 52 -62 28 -194 69 -215
67 -5 -1 -23 -4 -40 -8z"/>
<path d="M1633 1866 c-89 -22 -143 -47 -143 -66 0 -5 26 2 57 15 64 25 73 24
73 -8 0 -30 46 -97 68 -98 30 -2 65 -2 129 -1 54 2 66 6 87 29 14 15 28 40 31
55 9 37 24 35 65 -7 32 -33 36 -34 47 -18 15 20 17 67 3 58 -5 -3 -10 -2 -10
3 0 5 -10 12 -22 15 -13 3 -59 14 -103 26 -101 26 -166 26 -282 -3z m232 -136
c-3 -5 -11 -10 -16 -10 -6 0 -7 5 -4 10 3 6 11 10 16 10 6 0 7 -4 4 -10z"/>
<path d="M2130 1413 c0 -49 19 -81 65 -108 96 -56 180 -49 234 19 24 30 31 48
30 80 l-1 41 -13 -30 c-8 -16 -14 -35 -15 -42 -1 -27 -62 -56 -119 -57 -81 -1
-117 17 -152 78 -29 51 -29 51 -29 19z"/>
<path d="M2413 1149 c-135 -13 -270 -65 -324 -127 -26 -30 -37 -52 -24 -52 30
0 160 72 149 82 -5 6 74 23 89 20 4 -1 7 3 7 8 0 6 -6 11 -12 11 -7 1 3 5 22
8 19 4 40 4 45 0 9 -6 82 -18 207 -34 51 -7 65 3 48 35 -23 43 -92 59 -207 49z
m-16 -45 c-3 -3 -12 -4 -19 -1 -8 3 -5 6 6 6 11 1 17 -2 13 -5z"/>
<path d="M2405 985 c-33 -7 -95 -19 -137 -26 -43 -6 -78 -15 -78 -19 0 -18
282 28 304 50 13 13 -13 12 -89 -5z"/>
</g>
</svg>
